# AST/ASF file generated using VICON BodyLanguage
# -----------------------------------------------
:version 1.10
:name VICON
:units
  mass 1.0
  length 0.45
  angle deg
:documentation
   .ast/.asf automatically generated from VICON data using
   VICON BodyBuilder and BodyLanguage model FoxedUp or BRILLIANT.MOD
:root
   order TX TY TZ RX RY RZ
   axis XYZ
   position 0 0 0  
   orientation 0 0 0 
:bonedata
  begin
     id 1 
     name lhipjoint
     direction 0.734343 -0.627749 0.258209 
     length 2.5437 
     axis 0 0 0  XYZ
  end
  begin
     id 2 
     name lfemur
     direction 0.34202 -0.939693 0  
     length 6.7391  
     axis 0 0 20  XYZ
    dof rx ry rz
    limits (-160.0 20.0)
           (-70.0 70.0)
           (-60.0 70.0)
  end
  begin
     id 3 
     name ltibia
     direction 0.34202 -0.939693 0   
     length 7.21536   
     axis 0 0 20   XYZ
    dof rx
    limits (-10.0 170.0)
  end
  begin
     id 4 
     name lfoot
     direction 0.0489572 -0.134509 0.989702   
     length 1.61313   
     axis -90 7.62852e-016 20   XYZ
    dof rx rz
    limits (-45.0 90.0)
           (-70.0 20.0)
  end
  begin
     id 5 
     name ltoes
     direction 1.53451e-011 -4.21692e-011 1   
     length 0.823104   
     axis -90 7.62852e-016 20   XYZ
    dof rx
    limits (-90.0 20.0)
  end
  begin
     id 6 
     name rhipjoint
     direction -0.746398 -0.615468 0.253157   
     length 2.59446  
     axis 0 0 0  XYZ 
  end
  begin
     id 7 
     name rfemur
     direction -0.34202 -0.939693 0   
     length 6.7075   
     axis 0 0 -20   XYZ
    dof rx ry rz
    limits (-160.0 20.0)
           (-70.0 70.0)
           (-70.0 60.0)
  end
  begin
     id 8 
     name rtibia
     direction -0.34202 -0.939693 0   
     length 7.27262   
     axis 0 0 -20   XYZ
    dof rx
    limits (-10.0 170.0)
 end
 begin
     id 9 
     name rfoot
     direction -0.0455203 -0.125066 0.991104   
     length 1.91095  
     axis -90 -7.62852e-016 -20   XYZ
    dof rx rz
    limits (-45.0 90.0)
           (-20.0 70.0)
  end
  begin
     id 10 
     name rtoes
     direction -1.53601e-011 -4.21913e-011 1   
     length 0.969037   
     axis -90 -7.62852e-016 -20   XYZ
    dof rx
    limits (-90.0 20.0)
  end
  begin
     id 11 
     name lowerback
     direction 0.0181546 0.999122 -0.0377542   
     length 1.99916   
     axis 0 0 0   XYZ
    dof rx ry rz
    limits (-20.0 45.0)
           (-30.0 30.0)
           (-30.0 30.0)
  end
  begin
     id 12 
     name upperback
     direction 0.0203486 0.99589 0.0882534   
     length 1.951   
     axis 0 0 0   XYZ
    dof rx ry rz
    limits (-20.0 45.0)
           (-30.0 30.0)
           (-30.0 30.0)
  end
  begin
     id 13 
     name thorax
     direction 0.0131685 0.994241 0.106355   
     length 1.97461   
     axis 0 0 0   XYZ
    dof rx ry rz
    limits (-20.0 45.0)
           (-30.0 30.0)
           (-30.0 30.0)
  end
  begin
     id 14 
     name lowerneck
     direction -0.0281395 0.999325 0.023617   
     length 1.7959   
     axis 0 0 0   XYZ
    dof rx ry rz
    limits (-20.0 45.0)
           (-30.0 30.0)
           (-30.0 30.0)
  end
  begin
     id 15 
     name upperneck
     direction 0.0288721 0.991984 -0.123019   
     length 1.79917   
     axis 0 0 0   XYZ
    dof rx ry rz
    limits (-20.0 45.0)
           (-30.0 30.0)
           (-30.0 30.0)
  end
  begin
     id 16
     name head
     direction 0.0133797 0.998944 -0.0439492  
     length 1.80902  
     axis 0 0 0   XYZ
    dof rx ry rz
    limits (-20.0 45.0)
           (-30.0 30.0)
           (-30.0 30.0)
  end
  begin
     id 17 
     name lclavicle
     direction 0.919195 0.377107 0.113449  
     length 3.17815  
     axis 0 0 0   XYZ
    dof ry rz
    limits (-20.0 10.0)
           (0.0 20.0)
  end
  begin
     id 18 
     name lhumerus
     direction 1 -4.48959e-011 2.13129e-027   
     length 4.84137   
     axis 180 -30 -90   XYZ
    dof rx ry rz
    limits (-60.0 90.0)
           (-90.0 90.0)
           (-90.0 90.0)
  end
  begin
     id 19
     name lradius
     direction 1 -4.48957e-011 -6.30627e-028   
     length 3.2452   
     axis 180 -30 -90   XYZ
    dof rx
    limits (-10.0 170.0)
  end
  begin
     id 20
     name lwrist
     direction 1 -4.4901e-011 9.13299e-027   
     length 1.6226   
     axis -6.84618e-015 90 90   XYZ
    dof ry
    limits (-180.0 0.0)
 end
  begin
     id 21 
     name lhand
     direction 1 -4.48816e-011 1.82293e-026   
     length 0.521221   
     axis -1.16502e-014 90 90   XYZ
    dof rx rz
    limits (-90.0 90.0)
           (-45.0 45.0)
  end
  begin
     id 22 
     name lfingers
     direction 1 -4.49108e-011 3.65687e-026   
     length 0.420221   
     axis -2.33008e-014 90 90   XYZ
    dof rx
    limits (0.0 90.0)
  end
  begin
     id 23
     name lthumb
     direction 0.707107 -6.34943e-011 0.707107   
     length 0.603356   
     axis -90 45 5.69224e-014   XYZ
    dof rx rz
    limits (-45.0 45.0)
           (-45.0 45.0)
  end
  begin
     id 24 
     name rclavicle
     direction -0.90847 0.38596 0.160368   
     length 3.12973  
     axis 0 0 0   XYZ 
    dof ry rz
    limits (-10.0 20.0)
           (-20.0 0.0)
  end
  begin
     id 25 
     name rhumerus
     direction -1 -4.48974e-011 4.47268e-028  
     length 4.72284   
     axis 180 30 90   XYZ
    dof rx ry rz
    limits (-90.0 60.0)
           (-90.0 90.0)
           (-90.0 90.0)
  end
  begin
     id 26 
     name rradius
     direction -1 -4.48969e-011 3.43203e-027   
     length 3.23459   
     axis 180 30 90   XYZ
    dof rx
    limits (-10.0 170.0)
  end
  begin
     id 27 
     name rwrist
     direction -1 -4.48969e-011 9.12911e-027   
     length 1.6173   
     axis -6.84618e-015 -90 -90   XYZ
    dof ry
    limits (-180.0 0.0)
  end
  begin
     id 28
     name rhand
     direction -1 -4.49194e-011 1.83006e-026   
     length 0.307416   
     axis -1.16502e-014 -90 -90   XYZ
    dof rx rz
    limits (-90.0 90.0)
           (-45.0 45.0)
  end
  begin
     id 29
     name rfingers
     direction -1 -4.48423e-011 3.63103e-026   
     length 0.247847   
     axis -2.33008e-014 -90 -90   XYZ
    dof rx
    limits (0.0 90.0)
  end
  begin
     id 30
     name rthumb
     direction -0.707107 -6.34802e-011 0.707107   
     length 0.35586   
     axis -90 -45 -5.69224e-014   XYZ
    dof rx rz
    limits (-45.0 45.0)
           (-45.0 45.0)
  end
:hierarchy
  begin
    root lhipjoint rhipjoint lowerback
    lhipjoint lfemur
    lfemur ltibia
    ltibia lfoot
    lfoot ltoes
    rhipjoint rfemur
    rfemur rtibia
    rtibia rfoot
    rfoot rtoes
    lowerback upperback
    upperback thorax
    thorax lowerneck lclavicle rclavicle
    lowerneck upperneck
    upperneck head
    lclavicle lhumerus
    lhumerus lradius
    lradius lwrist
    lwrist lhand lthumb
    lhand lfingers
    rclavicle rhumerus
    rhumerus rradius
    rradius rwrist
    rwrist rhand rthumb
    rhand rfingers
  end

#!OML:ASF H:\Terrain\Patient Classification 1\Animal1\Tuesday\Animal1.ASF
:FULLY-SPECIFIED
:DEGREES
1379
root 11.0549 16.5758 -9.21943 9.45137 3.0247 -1.39944
lowerback -4.7688 -1.2819 1.69209
upperback -13.1693 -1.52941 1.8336
thorax -11.4277 -0.802103 1.11597
lowerneck -10.8069 0.206332 -7.49869
upperneck 10.5871 0.375583 8.82578
head 4.90749 0.464367 4.021
rclavicle 1.05356e-014 -3.97569e-016
rhumerus -16.4692 18.9883 -85.5993
rradius 124.367
rwrist 12.4629
rhand 51.0379 -8.41636
rfingers 7.12502
rthumb 70.6158 -362.079
lclavicle 1.05356e-014 -3.97569e-016
lhumerus -15.7585 -25.0746 91.6603
lradius 129.23
lwrist -48.2494
lhand 52.3481 72.094
lfingers 7.12502
lthumb 71.4073 62.7211
rfemur -18.7201 27.0402 15.0774
rtibia 19.4959
rfoot -27.8316 -39.2303
rtoes 37.2797
lfemur -9.10866 -26.4995 -9.33105
ltibia 13.117
lfoot -17.0361 23.8538
ltoes 0.465643
1380
root 11.0627 16.5725 -9.24606 9.54803 2.90528 -1.15888
lowerback -4.5444 -1.23712 1.58393
upperback -12.8973 -1.48353 1.69807
thorax -11.2403 -0.777768 1.02499
lowerneck -10.8597 0.156653 -7.21351
upperneck 10.5558 0.296022 8.59073
head 4.91523 0.422415 3.89319
rclavicle 7.7526e-015 -9.14409e-015
rhumerus -17.2502 19.6223 -86.0897
rradius 123.943
rwrist 12.7592
rhand 50.803 -8.54652
rfingers 7.12502
rthumb 70.4682 -362.727
lclavicle 7.7526e-015 -9.14409e-015
lhumerus -16.8042 -26.047 91.9092
lradius 129.114
lwrist -48.6216
lhand 51.8485 71.699
lfingers 7.12502
lthumb 71.112 63.5141
rfemur -19.224 25.6038 14.8991
rtibia 20.0353
rfoot -25.78 -38.5575
rtoes 35.6939
lfemur -9.47248 -25.6802 -9.61434
ltibia 13.4222
lfoot -16.7303 23.3777
ltoes -1.03818
1381
root 11.0669 16.5703 -9.28246 9.68388 2.73345 -0.828702
lowerback -4.24041 -1.1818 1.32227
upperback -12.5013 -1.43472 1.479
thorax -10.9538 -0.742021 0.928357
lowerneck -11.2749 0.0625037 -6.73614
upperneck 10.4606 0.136507 8.44311
head 4.97077 0.36164 3.75817
rclavicle -5.06901e-015 3.97569e-016
rhumerus -17.9842 19.943 -86.4481
rradius 123.843
rwrist 12.4635
rhand 50.8582 -8.75577
rfingers 7.12502
rthumb 70.5031 -362.815
lclavicle -5.06901e-015 3.97569e-016
lhumerus -17.5497 -26.477 91.7658
lradius 128.555
lwrist -48.5513
lhand 52.1422 69.4286
lfingers 7.12502
lthumb 71.2866 60.5501
rfemur -19.866 24.0333 14.6164
rtibia 20.6132
rfoot -22.9912 -38.0975
rtoes 32.4565
lfemur -10.0813 -24.5578 -9.97519
ltibia 14.0365
lfoot -16.3046 22.7517
ltoes -3.49672
1382
root 11.0724 16.5647 -9.32989 9.91464 2.54641 -0.79802
lowerback -3.8688 -1.08168 1.39774
upperback -12.0479 -1.32152 1.20258
thorax -10.6561 -0.710881 0.5813
lowerneck -12.2485 -0.0380297 -5.77934
upperneck 10.6358 -0.0981228 8.2172
head 5.20917 0.290614 3.52174
rclavicle -2.06736e-014 -7.55382e-015
rhumerus -18.6381 19.9576 -87.0739
rradius 123.678
rwrist 12.2972
rhand 51.307 -9.03491
rfingers 7.12502
rthumb 70.7828 -362.095
lclavicle -2.06736e-014 -7.55382e-015
lhumerus -18.1551 -27.2814 91.3803
lradius 128.2
lwrist -47.9365
lhand 51.4378 69.0672
lfingers 7.12502
lthumb 70.8632 61.8308
rfemur -20.74 22.3497 14.6313
rtibia 21.2969
rfoot -20.0374 -37.3741
rtoes 29.1657
lfemur -10.9737 -23.2947 -9.9674
ltibia 14.9095
lfoot -15.903 22.0583
ltoes -5.62363
1383
root 11.0801 16.5523 -9.37874 9.99201 2.45469 -1.13682
lowerback -3.33925 -1.00328 1.89519
upperback -11.6475 -1.20799 1.07554
thorax -10.5256 -0.708668 0.165512
lowerneck -12.9422 -0.10772 -5.0503
upperneck 11.0232 -0.298401 8.05351
head 5.46155 0.228446 3.34455
rclavicle 5.66536e-015 -1.39149e-015
rhumerus -19.9353 19.9751 -88.0324
rradius 123.435
rwrist 12.3962
rhand 52.6062 -8.75726
rfingers 7.12502
rthumb 71.5564 -358.756
lclavicle 5.66536e-015 -1.39149e-015
lhumerus -19.3419 -27.8762 91.4473
lradius 127.881
lwrist -47.6604
lhand 50.9139 69.1916
lfingers 7.12502
lthumb 70.5381 63.1285
rfemur -21.5716 20.8261 15.1096
rtibia 22.1946
rfoot -17.6792 -36.528
rtoes 26.2471
lfemur -11.8564 -21.9286 -9.62499
ltibia 15.9577
lfoot -15.3247 21.3558
ltoes -7.90052
1384
root 11.0867 16.5374 -9.42779 10.0603 2.34208 -1.25633
lowerback -2.84944 -1.04629 2.07399
upperback -11.3133 -1.24997 1.13489
thorax -10.4378 -0.741049 0.135727
lowerneck -13.0508 -0.0884522 -4.71218
upperneck 11.3401 -0.309741 7.763
head 5.579 0.221166 3.20025
rclavicle 1.15295e-014 -2.22639e-014
rhumerus -21.6834 20.2575 -88.5926
rradius 123.439
rwrist 12.2324
rhand 53.3409 -8.74918
rfingers 7.12502
rthumb 71.9681 -356.901
lclavicle 1.15295e-014 -2.22639e-014
lhumerus -21.1305 -27.5762 91.9787
lradius 127.455
lwrist -47.8414
lhand 51.0863 69.3757
lfingers 7.12502
lthumb 70.646 62.9308
rfemur -22.5742 19.3141 15.3577
rtibia 23.3666
rfoot -15.4246 -35.7702
rtoes 22.2117
lfemur -12.871 -20.4478 -9.5386
ltibia 17.2388
lfoot -15.0585 20.4929
ltoes -10.0463
1385
root 11.0939 16.5205 -9.48419 10.3049 2.11513 -0.900208
lowerback -2.53127 -1.13554 1.72231
upperback -10.8575 -1.38489 1.12056
thorax -10.0959 -0.774164 0.321274
lowerneck -13.3683 -0.028349 -4.50024
upperneck 11.4371 -0.244792 7.62377
head 5.65863 0.258483 3.13024
rclavicle -1.72446e-014 9.54166e-015
rhumerus -22.8094 20.4552 -88.788
rradius 123.267
rwrist 11.9626
rhand 53.0005 -9.7174
rfingers 7.12502
rthumb 71.7798 -358.735
lclavicle -1.72446e-014 9.54166e-015
lhumerus -22.5446 -27.0501 92.4595
lradius 127.088
lwrist -47.9777
lhand 50.808 69.8461
lfingers 7.12502
lthumb 70.4714 64.0152
rfemur -23.9434 17.5453 15.0695
rtibia 24.7926
rfoot -13.6853 -34.5425
rtoes 17.7376
lfemur -14.1754 -19.0319 -9.93962
ltibia 18.7744
lfoot -15.3392 19.5697
ltoes -11.8703
1386
root 11.1023 16.4913 -9.54633 10.6124 1.83581 -0.386236
lowerback -2.17943 -1.21159 1.24324
upperback -10.4385 -1.51123 1.03569
thorax -9.81625 -0.798062 0.504462
lowerneck -13.2757 0.00540708 -4.69408
upperneck 11.2337 -0.203253 7.97731
head 5.57714 0.292755 3.27517
rclavicle -1.2921e-014 4.77083e-015
rhumerus -24.1082 20.5011 -89.2726
rradius 122.777
rwrist 12.192
rhand 52.6029 -9.93906
rfingers 7.12502
rthumb 71.5546 -359.946
lclavicle -1.2921e-014 4.77083e-015
lhumerus -24.0335 -26.5059 92.9955
lradius 126.595
lwrist -48.3536
lhand 50.7384 69.8587
lfingers 7.12502
lthumb 70.4274 64.1796
rfemur -25.4734 15.6164 14.6394
rtibia 26.3717
rfoot -12.5559 -32.8308
rtoes 14.5978
lfemur -15.6765 -17.6338 -10.5143
ltibia 20.5604
lfoot -15.8841 18.5793
ltoes -13.6128
1387
root 11.111 16.4521 -9.61223 10.8002 1.55004 -0.219835
lowerback -1.64223 -1.20482 1.16443
upperback -9.98247 -1.5082 0.961928
thorax -9.61931 -0.792882 0.473293
lowerneck -12.8768 -0.0212938 -4.66168
upperneck 10.8187 -0.243987 8.03986
head 5.38349 0.266779 3.27668
rclavicle -1.59028e-015 1.19271e-015
rhumerus -25.7402 20.255 -89.952
rradius 122.225
rwrist 12.2621
rhand 51.7501 -9.36501
rfingers 7.12502
rthumb 71.0529 -361.41
lclavicle -1.59028e-015 1.19271e-015
lhumerus -25.7922 -25.5657 93.362
lradius 125.827
lwrist -49.4496
lhand 51.8057 69.284
lfingers 7.12502
lthumb 71.0863 61.1993
rfemur -26.9328 13.8154 14.634
rtibia 28.0065
rfoot -11.7675 -31.0347
rtoes 13.9457
lfemur -17.2174 -16.2348 -10.744
ltibia 22.6261
lfoot -16.5996 17.5661
ltoes -13.9803
1388
root 11.1204 16.4112 -9.68035 10.892 1.37658 -0.496013
lowerback -1.106 -1.20055 1.58886
upperback -9.36301 -1.48496 0.944792
thorax -9.25586 -0.814876 0.217113
lowerneck -12.6217 -0.0136661 -4.40265
upperneck 10.424 -0.258088 7.97095
head 5.21913 0.256349 3.20301
rclavicle -2.88238e-015 1.98785e-016
rhumerus -27.0925 19.8153 -90.5305
rradius 121.903
rwrist 12.0894
rhand 51.9108 -9.45512
rfingers 7.12502
rthumb 71.1493 -361.124
lclavicle -2.88238e-015 1.98785e-016
lhumerus -27.0204 -24.0892 93.3618
lradius 124.645
lwrist -50.931
lhand 54.3488 68.7715
lfingers 7.12502
lthumb 72.4996 54.2497
rfemur -28.2837 12.1786 15.1473
rtibia 29.659
rfoot -11.5788 -29.3383
rtoes 14.4577
lfemur -18.8542 -14.8042 -10.5035
ltibia 24.9657
lfoot -17.3199 16.4787
ltoes -13.3608
1389
root 11.1288 16.3601 -9.75512 11.0892 1.24829 -0.680692
lowerback -0.804605 -1.2914 2.05859
upperback -8.6356 -1.59997 0.840205
thorax -8.64627 -0.907482 -0.155208
lowerneck -12.6023 0.0639179 -4.40106
upperneck 10.2854 -0.201605 8.3985
head 5.17026 0.311533 3.34092
rclavicle 3.63279e-014 -5.36719e-015
rhumerus -28.0921 19.5876 -91.2777
rradius 121.57
rwrist 12.8904
rhand 52.2712 -9.91137
rfingers 7.12502
rthumb 71.3623 -360.724
lclavicle 3.63279e-014 -5.36719e-015
lhumerus -27.9526 -23.2575 93.4093
lradius 123.808
lwrist -51.8922
lhand 54.3268 68.7557
lfingers 7.12502
lthumb 72.4885 54.2939
rfemur -29.7655 10.5685 15.5647
rtibia 31.2992
rfoot -11.021 -27.8803
rtoes 12.628
lfemur -20.71 -13.3769 -10.3428
ltibia 27.4045
lfoot -17.7988 15.4997
ltoes -13.6761
1390
root 11.1368 16.2949 -9.83913 11.2719 1.03644 -0.613031
lowerback 0.194747 -1.36911 1.87055
upperback -8.21592 -1.68517 0.969118
thorax -8.76275 -0.927373 0.109739
lowerneck -12.6329 0.0623962 -4.69364
upperneck 10.5747 -0.196728 8.62707
head 5.26464 0.32201 3.46707
rclavicle -5.54112e-015 -7.55382e-015
rhumerus -29.5572 19.7208 -91.7637
rradius 121.2
rwrist 13.6501
rhand 51.4922 -10.0141
rfingers 7.12502
rthumb 70.8965 -362.653
lclavicle -5.54112e-015 -7.55382e-015
lhumerus -29.258 -22.3891 94.0078
lradius 123.049
lwrist -52.8101
lhand 54.301 68.6779
lfingers 7.12502
lthumb 72.4753 54.2865
rfemur -31.3388 9.08376 15.703
rtibia 33.0015
rfoot -10.0855 -26.7305
rtoes 9.30527
lfemur -22.5008 -12.1082 -10.4835
ltibia 29.7645
lfoot -18.1451 14.8086
ltoes -14.0561
